<svg width="27" height="26" viewBox="0 0 27 26" fill="none" xmlns="http://www.w3.org/2000/svg">
<path d="M22.8451 24.7809C23.1772 24.7809 23.4465 25.0538 23.4465 25.3904C23.4465 25.727 23.1772 26 22.8451 26H8.4173C6.3552 26 4.48076 25.1452 3.12194 23.7683C1.76353 22.3915 0.919983 20.4915 0.919983 18.4013V3.77832C0.919983 3.4417 1.18929 3.16875 1.52141 3.16875C1.85353 3.16875 2.12283 3.44171 2.12283 3.77832V18.4013C2.12283 20.1554 2.83106 21.7497 3.97203 22.9061C5.11299 24.0625 6.68669 24.7803 8.41669 24.7803H22.8445L22.8451 24.7809ZM11.0792 11.6995C10.7471 11.6995 10.4785 11.4265 10.4785 11.0899C10.4785 10.7533 10.7478 10.4811 11.0792 10.4811H15.03V6.47688C15.03 6.14027 15.2993 5.86732 15.6314 5.86732C15.9635 5.86732 16.2321 6.14028 16.2321 6.47688V10.4811H20.1829C20.515 10.4811 20.7836 10.754 20.7836 11.0899C20.7836 11.4265 20.5143 11.6995 20.1829 11.6995H16.2321V15.7037C16.2321 16.0403 15.9628 16.3125 15.6314 16.3125C15.2993 16.3125 15.03 16.0396 15.03 15.7037V11.6995H11.0792ZM8.41716 0H22.8449C23.8705 0 24.8026 0.425073 25.4787 1.1094C26.1541 1.79391 26.5733 2.73865 26.5733 3.77884V18.4018C26.5733 19.4412 26.1539 20.3859 25.4787 21.0712C24.8033 21.7557 23.8712 22.1806 22.8449 22.1806H8.41716C7.3916 22.1806 6.45948 21.7555 5.78336 21.0712C5.10799 20.3867 4.68877 19.442 4.68877 18.4018V3.77884C4.68877 2.7394 5.10816 1.79467 5.78336 1.1094C6.45873 0.424898 7.39085 0 8.41716 0ZM22.8449 1.2186H8.41716C7.72295 1.2186 7.09161 1.50673 6.63387 1.97066C6.17613 2.4346 5.89185 3.07453 5.89185 3.77808V18.401C5.89185 19.1039 6.17613 19.7445 6.63387 20.2084C7.09161 20.6724 7.723 20.9605 8.41716 20.9605H22.8449C23.5384 20.9605 24.1705 20.6724 24.6282 20.2084C25.0859 19.7445 25.3702 19.1046 25.3702 18.401V3.77808C25.3702 3.07448 25.0859 2.4346 24.6282 1.97066C24.1705 1.50673 23.5391 1.2186 22.8449 1.2186Z" fill="black"/>
</svg>
