<?xml version="1.0" encoding="UTF-8"?>
<svg width="700pt" height="700pt" version="1.1" viewBox="0 0 700 700" xmlns="http://www.w3.org/2000/svg">
 <path d="m290.66 292.75v-146.23l-84.605 73.117zm6.0586 51.492-128.87-111.37c-8.0781-6.9805-8.0781-19.504 0-26.484l128.87-111.37c11.336-9.8008 28.941-1.7461 28.941 13.238v222.74c0 14.988-17.605 23.039-28.941 13.242zm75.66-112.36c-9.6641 0-17.5-7.8359-17.5-17.5s7.8359-17.5 17.5-17.5h31.945c76.195 0 137.96 61.77 137.96 137.96 0 76.195-61.77 137.96-137.96 137.96h-204.05c-9.6641 0-17.5-7.8359-17.5-17.5 0-9.6641 7.8359-17.5 17.5-17.5h204.05c56.867 0 102.96-46.098 102.96-102.96 0-56.867-46.098-102.96-102.96-102.96z"/>
</svg>
