<svg width="20" height="20" viewBox="0 0 20 20" fill="none" xmlns="http://www.w3.org/2000/svg">
<path d="M8.57146 0C7.39672 0 6.4286 0.968132 6.4286 2.14288V2.85717H0.714289C0.319834 2.85717 0 3.17701 0 3.57147C0 3.96592 0.319834 4.28576 0.714289 4.28576H2.18462L2.93528 16.5904C3.04752 18.434 4.48406 20 6.38537 20H13.6148C15.5161 20 16.9525 18.434 17.0649 16.5904L17.8154 4.28576H19.2857C19.6802 4.28576 20 3.96592 20 3.57147C20 3.17701 19.6802 2.85717 19.2857 2.85717H13.5714V2.14288C13.5714 0.968132 12.6033 0 11.4285 0H8.57146ZM8.57146 1.42859H11.4286C11.8366 1.42859 12.1429 1.73487 12.1429 2.14288V2.85717H7.85717V2.14288C7.85717 1.73487 8.16346 1.42859 8.57146 1.42859ZM3.61593 4.28576H16.3837L15.6387 16.5042C15.5666 17.6888 14.7469 18.5717 13.6144 18.5717H6.38501C5.25251 18.5717 4.43283 17.6887 4.36075 16.5042L3.61593 4.28576Z" fill="black"/>
<path d="M7.85711 7.85724C7.6677 7.85724 7.48593 7.9325 7.35201 8.06642C7.21808 8.20035 7.14282 8.38212 7.14282 8.57153V14.2859C7.14282 14.4753 7.21808 14.6571 7.35201 14.791C7.48593 14.9249 7.6677 15.0002 7.85711 15.0002C8.04652 15.0002 8.22829 14.9249 8.36221 14.791C8.49614 14.6571 8.5714 14.4753 8.5714 14.2859V8.57153C8.5714 8.38212 8.49614 8.20035 8.36221 8.06642C8.22829 7.9325 8.04652 7.85724 7.85711 7.85724Z" fill="black"/>
<path d="M12.1429 7.85724C11.9535 7.85724 11.7717 7.9325 11.6378 8.06642C11.5038 8.20035 11.4286 8.38212 11.4286 8.57153V14.2859C11.4286 14.4753 11.5038 14.6571 11.6378 14.791C11.7717 14.9249 11.9535 15.0002 12.1429 15.0002C12.3323 15.0002 12.5141 14.9249 12.648 14.791C12.7819 14.6571 12.8572 14.4753 12.8572 14.2859V8.57153C12.8572 8.38212 12.7819 8.20035 12.648 8.06642C12.5141 7.9325 12.3323 7.85724 12.1429 7.85724Z" fill="black"/>
</svg>
