<svg width="27" height="26" viewBox="0 0 27 26" fill="none" xmlns="http://www.w3.org/2000/svg">
<path d="M4.18653 25.9999H17.1024C19.1304 25.9999 20.7768 24.3728 20.8712 22.3408C22.875 22.2403 24.4789 20.5752 24.4789 18.5248V10.8269C24.4789 10.3136 24.069 9.89824 23.5627 9.89824C23.3095 9.89824 23.0804 10.0021 22.9145 10.1702C22.7489 10.3381 22.6464 10.5702 22.6464 10.8269V18.5248C22.6464 19.6157 21.7668 20.5026 20.6851 20.5026H7.77552C6.69912 20.5026 5.82403 19.6157 5.82403 18.5248V5.4409C5.82403 4.34461 6.69917 3.45309 7.77552 3.45309H15.3709C15.6241 3.45309 15.8531 3.34924 16.0188 3.18134C16.1845 3.01344 16.2871 2.78129 16.2871 2.52447C16.2871 2.01124 15.8773 1.59586 15.3709 1.59586H7.77552C5.75241 1.59586 4.10951 3.22114 4.01035 5.25225C2.00546 5.34781 0.399994 7.01662 0.399994 9.07198V22.1622C0.399994 24.2788 2.09834 26 4.18663 26L4.18653 25.9999ZM2.23237 9.07156C2.23237 8.04738 3.00668 7.21184 3.99145 7.11113V18.5246C3.99145 20.6394 5.68875 22.3596 7.77542 22.3596H19.0368C18.9374 23.3577 18.113 24.1425 17.1025 24.1425H4.18664C3.10924 24.1425 2.23248 23.2539 2.23248 22.1619L2.23237 9.07156Z" fill="black"/>
<path d="M15.9725 5.84954C15.4903 6.3383 15.1403 6.94955 14.9606 7.61783L14.2734 10.1734C14.1382 10.6702 14.2779 11.2054 14.6376 11.5698C14.907 11.8428 15.2711 11.9906 15.6416 11.9906C15.766 11.9906 15.8913 11.9742 16.0139 11.9398L18.537 11.2425C19.1963 11.0603 19.7994 10.7056 20.2817 10.2169L25.1627 5.26991C26.3502 4.06563 26.3502 2.10684 25.1627 0.902512C23.9745 -0.301766 22.0418 -0.299909 20.8535 0.902512L15.9725 5.84954ZM23.8668 2.21591C24.3393 2.69555 24.3393 3.47739 23.8668 3.95703L18.9858 8.90399C18.7289 9.16433 18.4068 9.35378 18.0553 9.45081L16.2307 9.95512L16.7283 8.10596C16.8241 7.74965 17.0112 7.42319 17.2679 7.16286L22.1489 2.2159C22.386 1.97649 22.6964 1.85669 23.0079 1.85669C23.3194 1.85669 23.6298 1.9765 23.8668 2.21591Z" fill="black"/>
</svg>
