<svg width="18" height="18" viewBox="0 0 18 18" fill="none" xmlns="http://www.w3.org/2000/svg">
<path d="M7.80119 4.11862C7.5168 3.62182 6.8832 3.45265 6.38643 3.73702L6.12363 3.88822C5.62683 4.17261 5.45404 4.8098 5.74203 5.3066L5.97603 5.71339L8.0388 4.5254L7.80119 4.11862Z" fill="black"/>
<path d="M12.3947 14.3064L12.0779 11.4445L8.22598 4.85283L6.15601 6.04441L9.92858 12.6611L9.93938 12.6755L12.2649 14.3818C12.3225 14.425 12.4053 14.3782 12.3945 14.3062L12.3947 14.3064ZM7.57808 6.27151L7.66808 6.21751L10.566 11.2359L10.476 11.2899L7.57808 6.27151ZM10.8216 11.8227C11.268 11.5491 11.7 11.5095 11.9016 11.5023L12.0852 13.1547L11.4228 13.5363L10.0836 12.5535C10.188 12.3843 10.4112 12.0675 10.8216 11.8228L10.8216 11.8227Z" fill="black"/>
<path d="M9 18C6.59526 18 4.33448 17.064 2.63514 15.3649C0.935803 13.6657 0 11.405 0 9C0 6.59499 0.936001 4.33448 2.63514 2.63514C4.33428 0.935803 6.59499 0 9 0C11.405 0 13.6655 0.936001 15.3649 2.63514C17.0642 4.33428 18 6.59499 18 9C18 11.405 17.064 13.6655 15.3649 15.3649C13.6657 17.0642 11.405 18 9 18ZM9 0.576122C4.3562 0.576122 0.576056 4.35594 0.576056 9.00007C0.576056 13.6442 4.35587 17.424 9 17.424C13.6441 17.424 17.4239 13.6442 17.4239 9.00007C17.4239 4.35594 13.6441 0.576122 9 0.576122Z" fill="black"/>
</svg>
