<svg width="18" height="18" viewBox="0 0 18 18" fill="none" xmlns="http://www.w3.org/2000/svg">
<path d="M9 0C4.03643 0 0 4.03643 0 9C0 13.9636 4.03643 18 9 18C13.9636 18 18 13.9636 18 9C18 4.03643 13.9636 0 9 0ZM9 1.20007C13.315 1.20007 16.8 4.68514 16.8 9.00007C16.8 13.315 13.3149 16.8001 9 16.8001C4.68507 16.8001 1.2 13.315 1.2 9.00007C1.2 4.68514 4.68507 1.20007 9 1.20007ZM4.93107 4.39371C4.77956 4.41004 4.63992 4.48328 4.54043 4.59879C4.44096 4.71431 4.38906 4.8633 4.39548 5.01565C4.4019 5.16785 4.46607 5.31211 4.57489 5.41883L8.14989 8.9999L4.57489 12.5749C4.45072 12.6848 4.37776 12.8412 4.37302 13.007C4.36827 13.1727 4.43245 13.333 4.55005 13.4498C4.6678 13.5665 4.82851 13.6294 4.99427 13.6236C5.15986 13.6177 5.31584 13.5435 5.4248 13.4186L8.9998 9.84365L12.5748 13.4186C12.6838 13.5435 12.8397 13.6177 13.0053 13.6236C13.1711 13.6294 13.3318 13.5665 13.4496 13.4498C13.5672 13.333 13.6313 13.1727 13.6266 13.007C13.6218 12.8412 13.5489 12.6848 13.4247 12.5749L9.84972 8.9999L13.4247 5.41883C13.5455 5.30094 13.6112 5.13786 13.6055 4.96919C13.5999 4.80052 13.5236 4.64204 13.3953 4.53265C13.2669 4.42314 13.0984 4.37277 12.931 4.3937C12.7951 4.4117 12.6693 4.47559 12.5748 4.57506L8.99983 8.15006L5.42483 4.57506C5.2969 4.44183 5.1148 4.37502 4.93107 4.39371Z" fill="black"/>
</svg>
